<svg viewBox="0 0 720 320" xmlns="http://www.w3.org/2000/svg" role="img"><style>text{font-family:'Inter',system-ui,sans-serif}</style>
<defs><marker id="arO" markerWidth="9" markerHeight="9" refX="7" refY="3" orient="auto">
<path d="M0,0 L7,3 L0,6 Z" fill="#c75c2e"/></marker></defs>
<path d="M250,65 A95,95 0 0,0 250,255 Z" fill="#1b2a3a"/>
<path d="M250,65 A95,95 0 0,1 250,255 Z" fill="#cfe0ea"/>
<circle cx="250" cy="160" r="95" fill="none" stroke="#16243a" stroke-width="1.5"/>
<line x1="250" y1="52" x2="250" y2="268" stroke="#16243a" stroke-width="1" stroke-dasharray="4 4"/>
<g stroke="#c75c2e" stroke-width="2.2" marker-end="url(#arO)">
<line x1="700" y1="110" x2="610" y2="110"/><line x1="700" y1="160" x2="610" y2="160"/>
<line x1="700" y1="210" x2="610" y2="210"/></g>
<text x="700" y="92" text-anchor="end" font-size="14" fill="#c75c2e" font-weight="600">Sunlight</text>
<ellipse cx="250" cy="160" rx="27" ry="128" fill="none" stroke="#0d7d74" stroke-width="2.6"/>
<circle cx="250" cy="32" r="6.5" fill="#0d7d74"/>
<text x="150" y="165" text-anchor="middle" font-size="13" fill="#eef2f5">Night</text>
<text x="352" y="165" text-anchor="middle" font-size="13" fill="#26313f">Day</text>
<text x="250" y="20" text-anchor="middle" font-size="12.5" fill="#0d7d74" font-weight="600">satellite</text>
<text x="430" y="300" text-anchor="middle" font-size="13" fill="#26313f">orbit plane on the day–night terminator</text>
</svg>