<svg viewBox="0 0 660 345" xmlns="http://www.w3.org/2000/svg" role="img"><style>text{font-family:'Inter',system-ui,sans-serif}</style><rect x="60" y="272" width="64" height="28" fill="#f1f5f9" stroke="#cdd5dd" stroke-width="1"/><text x="92" y="294" text-anchor="middle" font-size="11" fill="#5c6b7a">1</text><rect x="124" y="244" width="64" height="56" fill="#f1f5f9" stroke="#cdd5dd" stroke-width="1"/><text x="156" y="294" text-anchor="middle" font-size="11" fill="#5c6b7a">2</text><rect x="188" y="216" width="64" height="84" fill="#f1f5f9" stroke="#cdd5dd" stroke-width="1"/><text x="220" y="294" text-anchor="middle" font-size="11" fill="#5c6b7a">3</text><rect x="252" y="188" width="64" height="112" fill="#f1f5f9" stroke="#cdd5dd" stroke-width="1"/><text x="284" y="294" text-anchor="middle" font-size="11" fill="#5c6b7a">4</text><rect x="316" y="160" width="64" height="140" fill="#f1f5f9" stroke="#cdd5dd" stroke-width="1"/><text x="348" y="294" text-anchor="middle" font-size="11" fill="#5c6b7a">5</text><rect x="380" y="132" width="64" height="168" fill="#f1f5f9" stroke="#cdd5dd" stroke-width="1"/><text x="412" y="294" text-anchor="middle" font-size="11" fill="#5c6b7a">6</text><rect x="444" y="104" width="64" height="196" fill="#f1f5f9" stroke="#cdd5dd" stroke-width="1"/><text x="476" y="294" text-anchor="middle" font-size="11" fill="#5c6b7a">7</text><rect x="508" y="76" width="64" height="224" fill="#f1f5f9" stroke="#cdd5dd" stroke-width="1"/><text x="540" y="294" text-anchor="middle" font-size="11" fill="#5c6b7a">8</text><rect x="572" y="48" width="64" height="252" fill="#f1f5f9" stroke="#cdd5dd" stroke-width="1"/><text x="604" y="294" text-anchor="middle" font-size="11" fill="#5c6b7a">9</text><circle cx="156" cy="236" r="6" fill="#a3303a"/><text x="156" y="213" text-anchor="middle" font-size="10.5" fill="#a3303a">autonomous debris</text><text x="156" y="226" text-anchor="middle" font-size="10.5" fill="#a3303a">avoidance</text><circle cx="220" cy="208" r="6" fill="#a3303a"/><text x="220" y="185" text-anchor="middle" font-size="10.5" fill="#a3303a">close-formation</text><text x="220" y="198" text-anchor="middle" font-size="10.5" fill="#a3303a">flight</text><circle cx="284" cy="180" r="6" fill="#c75c2e"/><text x="284" y="157" text-anchor="middle" font-size="10.5" fill="#c75c2e">formation link</text><text x="284" y="170" text-anchor="middle" font-size="10.5" fill="#c75c2e">(bench only)</text><circle cx="348" cy="152" r="6" fill="#0d7d74"/><text x="348" y="129" text-anchor="middle" font-size="10.5" fill="#0d7d74">rad-tested processor /</text><text x="348" y="142" text-anchor="middle" font-size="10.5" fill="#0d7d74">kW thermal</text><circle cx="412" cy="124" r="6" fill="#0d7d74"/><text x="412" y="101" text-anchor="middle" font-size="10.5" fill="#0d7d74">accelerator</text><text x="412" y="114" text-anchor="middle" font-size="10.5" fill="#0d7d74">in orbit</text><text x="60" y="24" font-size="12.5" fill="#0d7d74">components: TRL 4–6</text><text x="240" y="24" font-size="12.5" fill="#a3303a">system integration: TRL 2–3</text><text x="320" y="332" text-anchor="middle" font-size="12.5" fill="#26313f">technology-readiness level (1 = principle, 9 = flight-proven)</text></svg>