<svg viewBox="0 0 560 380" xmlns="http://www.w3.org/2000/svg" role="img"><style>text{font-family:'Inter',system-ui,sans-serif}</style><defs><marker id="arN" markerWidth="8" markerHeight="8" refX="4" refY="3" orient="auto"><path d="M6,0 L0,3 L6,6 Z" fill="#16243a"/></marker></defs><line x1="280" y1="68" x2="326" y2="77" stroke="#0d7d74" stroke-width="1" opacity="0.55"/><line x1="326" y1="77" x2="365" y2="103" stroke="#0d7d74" stroke-width="1" opacity="0.55"/><line x1="365" y1="103" x2="391" y2="142" stroke="#0d7d74" stroke-width="1" opacity="0.55"/><line x1="391" y1="142" x2="400" y2="188" stroke="#0d7d74" stroke-width="1" opacity="0.55"/><line x1="400" y1="188" x2="391" y2="234" stroke="#0d7d74" stroke-width="1" opacity="0.55"/><line x1="391" y1="234" x2="365" y2="273" stroke="#0d7d74" stroke-width="1" opacity="0.55"/><line x1="365" y1="273" x2="326" y2="299" stroke="#0d7d74" stroke-width="1" opacity="0.55"/><line x1="326" y1="299" x2="280" y2="308" stroke="#0d7d74" stroke-width="1" opacity="0.55"/><line x1="280" y1="308" x2="234" y2="299" stroke="#0d7d74" stroke-width="1" opacity="0.55"/><line x1="234" y1="299" x2="195" y2="273" stroke="#0d7d74" stroke-width="1" opacity="0.55"/><line x1="195" y1="273" x2="169" y2="234" stroke="#0d7d74" stroke-width="1" opacity="0.55"/><line x1="169" y1="234" x2="160" y2="188" stroke="#0d7d74" stroke-width="1" opacity="0.55"/><line x1="160" y1="188" x2="169" y2="142" stroke="#0d7d74" stroke-width="1" opacity="0.55"/><line x1="169" y1="142" x2="195" y2="103" stroke="#0d7d74" stroke-width="1" opacity="0.55"/><line x1="195" y1="103" x2="234" y2="77" stroke="#0d7d74" stroke-width="1" opacity="0.55"/><line x1="234" y1="77" x2="280" y2="68" stroke="#0d7d74" stroke-width="1" opacity="0.55"/><line x1="280" y1="68" x2="280" y2="308" stroke="#0d7d74" stroke-width="0.6" opacity="0.22"/><line x1="391" y1="142" x2="169" y2="234" stroke="#0d7d74" stroke-width="0.6" opacity="0.22"/><line x1="365" y1="273" x2="195" y2="103" stroke="#0d7d74" stroke-width="0.6" opacity="0.22"/><line x1="234" y1="299" x2="326" y2="77" stroke="#0d7d74" stroke-width="0.6" opacity="0.22"/><line x1="160" y1="188" x2="400" y2="188" stroke="#0d7d74" stroke-width="0.6" opacity="0.22"/><line x1="234" y1="77" x2="326" y2="299" stroke="#0d7d74" stroke-width="0.6" opacity="0.22"/><circle cx="280" cy="68" r="6" fill="#0d7d74"/><circle cx="326" cy="77" r="6" fill="#0d7d74"/><circle cx="365" cy="103" r="6" fill="#0d7d74"/><circle cx="391" cy="142" r="6" fill="#0d7d74"/><circle cx="400" cy="188" r="6" fill="#0d7d74"/><circle cx="391" cy="234" r="6" fill="#0d7d74"/><circle cx="365" cy="273" r="6" fill="#0d7d74"/><circle cx="326" cy="299" r="6" fill="#0d7d74"/><circle cx="280" cy="308" r="6" fill="#0d7d74"/><circle cx="234" cy="299" r="6" fill="#0d7d74"/><circle cx="195" cy="273" r="6" fill="#0d7d74"/><circle cx="169" cy="234" r="6" fill="#0d7d74"/><circle cx="160" cy="188" r="6" fill="#0d7d74"/><circle cx="169" cy="142" r="6" fill="#0d7d74"/><circle cx="195" cy="103" r="6" fill="#0d7d74"/><circle cx="234" cy="77" r="6" fill="#0d7d74"/><line x1="280" y1="68" x2="326" y2="77" stroke="#a3303a" stroke-width="2.4"/><text x="319" y="65" font-size="11.5" fill="#a3303a">~150 m</text><line x1="160" y1="342" x2="400" y2="342" stroke="#16243a" stroke-width="1" marker-start="url(#arN)" marker-end="url(#arN)"/><text x="280" y="336" text-anchor="middle" font-size="12.5" fill="#16243a">cluster ≈ 1 km across</text><text x="280" y="24" text-anchor="middle" font-size="12.5" fill="#26313f">≈ 81 satellites, laser links between neighbours</text></svg>