<svg viewBox="0 0 720 290" xmlns="http://www.w3.org/2000/svg" role="img"><style>text{font-family:'Inter',system-ui,sans-serif}</style>
<g>
<circle cx="120" cy="80" r="10" fill="#0d7d74"/>
<circle cx="300" cy="80" r="11" fill="#a3303a"/>
<circle cx="480" cy="80" r="10" fill="#0d7d74"/>
<circle cx="650" cy="80" r="10" fill="#0d7d74"/>
</g>
<g stroke="#a3303a" stroke-width="1.3" opacity="0.8">
<line x1="300" y1="80" x2="180" y2="40"/><line x1="300" y1="80" x2="180" y2="120"/>
<line x1="300" y1="80" x2="430" y2="40"/><line x1="300" y1="80" x2="430" y2="120"/>
<line x1="300" y1="80" x2="300" y2="20"/><line x1="300" y1="80" x2="300" y2="140"/>
<line x1="300" y1="80" x2="210" y2="80"/><line x1="300" y1="80" x2="400" y2="80"/></g>
<text x="300" y="165" text-anchor="middle" font-size="12" fill="#a3303a" font-weight="600">fragmentation sprays debris</text>
<line x1="300" y1="190" x2="480" y2="190" stroke="#16243a" stroke-width="1" marker-start="url(#arF)" marker-end="url(#arF)"/>
<defs><marker id="arF" markerWidth="8" markerHeight="8" refX="4" refY="3" orient="auto">
<path d="M6,0 L0,3 L6,6 Z" fill="#16243a"/></marker></defs>
<text x="390" y="183" text-anchor="middle" font-size="12" fill="#16243a">spacing d</text>
<text x="360" y="232" text-anchor="middle" font-size="13" fill="#26313f">neighbour-hit probability grows as 1 / d²</text>
<text x="360" y="254" text-anchor="middle" font-size="12.5" fill="#0d7d74">links want d ≈ 150 m</text>
<text x="360" y="274" text-anchor="middle" font-size="12.5" fill="#a3303a">debris safety wants d ≈ 1 km</text>
</svg>