<svg viewBox="0 0 720 180" xmlns="http://www.w3.org/2000/svg" role="img"><style>text{font-family:'Inter',system-ui,sans-serif}</style>
<defs><marker id="arT" markerWidth="9" markerHeight="9" refX="7" refY="3" orient="auto">
<path d="M0,0 L7,3 L0,6 Z" fill="#a3303a"/></marker></defs>
<line x1="20" y1="40" x2="700" y2="40" stroke="#a3303a" stroke-width="2.2" marker-end="url(#arT)"/>
<text x="20" y="28" font-size="13" fill="#a3303a" font-weight="600">heat flow</text>
<rect x="20" y="58" width="112" height="54" rx="6" fill="#fdece8" stroke="#16243a" stroke-width="1.2"/><text x="76" y="82" text-anchor="middle" font-size="12.5" fill="#16243a" font-weight="600">Junction</text><text x="76" y="100" text-anchor="middle" font-size="11" fill="#5c6b7a">0.150 K/W</text><rect x="152" y="58" width="112" height="54" rx="6" fill="#eef2f5" stroke="#16243a" stroke-width="1.2"/><text x="208" y="82" text-anchor="middle" font-size="12.5" fill="#16243a" font-weight="600">Interface</text><text x="208" y="100" text-anchor="middle" font-size="11" fill="#5c6b7a">0.020 K/W</text><rect x="284" y="58" width="112" height="54" rx="6" fill="#eef2f5" stroke="#16243a" stroke-width="1.2"/><text x="340" y="82" text-anchor="middle" font-size="12.5" fill="#16243a" font-weight="600">Cold plate</text><text x="340" y="100" text-anchor="middle" font-size="11" fill="#5c6b7a">0.060 K/W</text><rect x="416" y="58" width="112" height="54" rx="6" fill="#eef2f5" stroke="#16243a" stroke-width="1.2"/><text x="472" y="82" text-anchor="middle" font-size="12.5" fill="#16243a" font-weight="600">Heat pipe</text><text x="472" y="100" text-anchor="middle" font-size="11" fill="#5c6b7a">0.050 K/W</text><rect x="548" y="58" width="112" height="54" rx="6" fill="#e3f1ef" stroke="#16243a" stroke-width="1.2"/><text x="604" y="82" text-anchor="middle" font-size="12.5" fill="#16243a" font-weight="600">Radiator</text><text x="604" y="100" text-anchor="middle" font-size="11" fill="#5c6b7a">0.020 K/W</text>
<text x="76" y="138" text-anchor="middle" font-size="12" fill="#a3303a">~111 °C</text>
<text x="664" y="138" text-anchor="middle" font-size="12" fill="#0d7d74">~21 °C</text>
<text x="700" y="92" text-anchor="end" font-size="20" fill="#0d7d74">↝↝</text>
<text x="360" y="160" text-anchor="middle" font-size="12.5" fill="#26313f">total ~0.300 K/W; the junction-to-case step dominates</text>
</svg>